<svg width="16" height="16" viewBox="0 0 16 16" fill="none" xmlns="http://www.w3.org/2000/svg">
<mask id="mask0_210_123" style="mask-type:luminance" maskUnits="userSpaceOnUse" x="0" y="0" width="16" height="16">
<path d="M16 0H0V16H16V0Z" fill="white"/>
</mask>
<g mask="url(#mask0_210_123)">
<path d="M7.33333 10.7667V12.5667C7.33333 14.0667 6.73333 14.6667 5.23333 14.6667H3.43333C1.93333 14.6667 1.33333 14.0667 1.33333 12.5667V10.7667C1.33333 9.26669 1.93333 8.66669 3.43333 8.66669H5.23333C6.73333 8.66669 7.33333 9.26669 7.33333 10.7667Z" fill="#3C8C50"/>
<path d="M10.9867 1.33334H5.68C3.64667 1.33334 2 2.98001 2 5.01334V7.00001C2 7.36668 2.3 7.66668 2.66667 7.66668H5.66667C7.14 7.66668 8.33333 8.86001 8.33333 10.3333V13.3333C8.33333 13.7 8.63333 14 9 14H10.9867C13.2867 14 14.6667 12.6267 14.6667 10.32V5.01334C14.6667 2.98001 13.02 1.33334 10.9867 1.33334ZM12.5067 6.66001C12.5067 6.93334 12.28 7.16001 12.0067 7.16001C11.7333 7.16001 11.5067 6.93334 11.5067 6.66001V5.19334L9.02 7.68668C8.92 7.78668 8.79333 7.83334 8.66667 7.83334C8.54 7.83334 8.41333 7.78668 8.31333 7.68668C8.12 7.49334 8.12 7.17334 8.31333 6.98001L10.8 4.48001H9.33333C9.05333 4.48001 8.83333 4.26001 8.83333 3.98001C8.83333 3.70668 9.05333 3.48001 9.33333 3.48001H12.0067C12.0667 3.48001 12.1267 3.50001 12.18 3.52001C12.2 3.52668 12.2133 3.53334 12.2267 3.54001C12.2667 3.56001 12.3 3.58001 12.3333 3.61334C12.3467 3.62001 12.36 3.63334 12.3733 3.64668C12.4067 3.68668 12.4333 3.72668 12.46 3.77334C12.46 3.78001 12.4667 3.78668 12.4667 3.79334C12.4933 3.84668 12.5 3.90668 12.5 3.96668C12.5067 3.97334 12.5067 3.97334 12.5067 3.98001V6.66001Z" fill="#3C8C50"/>
</g>
</svg>
