<svg width="22" height="16" viewBox="0 0 22 16" fill="none" xmlns="http://www.w3.org/2000/svg">
<path d="M19.25 5.25C20.75 5.25 20.75 5.75 20.75 6.75V8.75C20.75 9.75 20.75 10.25 19.25 10.25" fill="#6DCA7A"/>
<path d="M19.25 5.25C20.75 5.25 20.75 5.75 20.75 6.75V8.75C20.75 9.75 20.75 10.25 19.25 10.25" stroke="#6DCA7A" stroke-width="1.5" stroke-linecap="round" stroke-linejoin="round"/>
<path d="M5.13 5.75C5.46 7.06 5.46 8.44 5.13 9.75V5.75Z" fill="#6DCA7A"/>
<path d="M5.13 5.75C5.46 7.06 5.46 8.44 5.13 9.75" stroke="#6DCA7A" stroke-width="1.5" stroke-linecap="round" stroke-linejoin="round"/>
<path d="M8.63 5.75C8.96 7.06 8.96 8.44 8.63 9.75" stroke="#6DCA7A" stroke-width="1.5" stroke-linecap="round" stroke-linejoin="round"/>
<path d="M11.75 14.75H5.75C1.75 14.75 0.75 13.75 0.75 9.75V5.75C0.75 1.75 1.75 0.75 5.75 0.75H11.75C15.75 0.75 16.75 1.75 16.75 5.75V9.75C16.75 13.75 15.75 14.75 11.75 14.75Z" stroke="#6DCA7A" stroke-width="1.5" stroke-linecap="round" stroke-linejoin="round"/>
</svg>
