<svg width="14" height="14" viewBox="0 0 14 14" fill="none" xmlns="http://www.w3.org/2000/svg">
<path d="M13.3333 2.4935V10.8401C13.3333 12.2135 12.2133 13.3335 10.84 13.3335H10.4933C9.12 13.3335 8 12.2135 8 10.8401V6.58681C8.23333 6.56015 8.46 6.52681 8.67333 6.48015C10.0333 6.23348 11.0667 5.76681 11.8133 5.2935C12.7733 4.6935 13.3333 3.62683 13.3333 2.4935Z" fill="#3C8C50"/>
<path d="M13.3333 2.49334C13.3333 3.62667 12.7733 4.69333 11.8133 5.29333C11.0667 5.76667 10.0333 6.23333 8.67333 6.48C8.46 6.52667 8.23333 6.56 8 6.58667V7.08667C7.20667 7.18667 6.36 7.13333 5.38 7.23333L5.33333 7.24V10.84C5.33333 12.2133 4.21334 13.3333 2.84001 13.3333H2.49333C1.11999 13.3333 0 12.2133 0 10.84C0 10.78 1.3339e-05 10.7133 0.0133467 10.6533C0.06668 9.58667 0.613353 8.60667 1.52002 8.04C2.26669 7.56667 3.29999 7.1 4.65332 6.85333C4.86665 6.80667 5.1 6.77333 5.33333 6.74667V6.23333C6.37333 6.14 7.16667 6.19333 7.94 6.09333L8 6.08667V2.49334C8 1.12001 9.12 0 10.4933 0H10.84C12.06 0 13.0867 0.886667 13.2933 2.05333C13.32 2.19333 13.3333 2.34001 13.3333 2.49334Z" fill="#3C8C50"/>
<path d="M5.33333 2.49334V6.74667C5.1 6.77333 4.86665 6.80667 4.65332 6.85333C3.29999 7.1 2.26669 7.56667 1.52002 8.04C0.613353 8.60667 0.06668 9.58667 0.0133467 10.6533C0.00668001 10.66 0 10.6667 0 10.6667V2.49334C0 1.12001 1.11999 0 2.49333 0H2.84001C4.21334 0 5.33333 1.12001 5.33333 2.49334Z" fill="#3C8C50"/>
</svg>
