<svg width="18" height="14" viewBox="0 0 18 14" fill="none" xmlns="http://www.w3.org/2000/svg">
<path d="M14.0646 13.0973H11.1553H10.3719H10.2027V9.19493H11.479C11.8026 9.19493 11.9939 8.82714 11.8026 8.56232L9.31998 5.12709C9.16183 4.90642 8.83449 4.90642 8.67634 5.12709L6.19371 8.56232C6.00245 8.82714 6.19003 9.19493 6.51737 9.19493H7.79362V13.0973H7.62444H6.84103H3.46833C1.53739 12.9906 0 11.1847 0 9.22803C0 7.87822 0.731917 6.70127 1.81692 6.06498C1.71761 5.79649 1.66612 5.5096 1.66612 5.20801C1.66612 3.82877 2.78055 2.71434 4.15979 2.71434C4.4577 2.71434 4.74459 2.76584 5.01308 2.86514C5.8112 1.17327 7.53249 0 9.53331 0C12.1226 0.00367797 14.2558 1.98611 14.4986 4.51287C16.4884 4.85492 18 6.69759 18 8.783C18 11.0119 16.264 12.9428 14.0646 13.0973Z" fill="black"/>
</svg>
