<svg width="24" height="24" viewBox="0 0 24 24" fill="none" xmlns="http://www.w3.org/2000/svg">
<path d="M12 2C13.1 2 14 2.9 14 4C14 5.1 13.1 6 12 6C10.9 6 10 5.1 10 4C10 2.9 10.9 2 12 2Z" fill="#3C8C50"/>
<path d="M12 18C13.1 18 14 18.9 14 20C14 21.1 13.1 22 12 22C10.9 22 10 21.1 10 20C10 18.9 10.9 18 12 18Z" fill="#3C8C50"/>
<path d="M2 12C2 10.9 2.9 10 4 10C5.1 10 6 10.9 6 12C6 13.1 5.1 14 4 14C2.9 14 2 13.1 2 12Z" fill="#3C8C50"/>
<path d="M18 12C18 10.9 18.9 10 20 10C21.1 10 22 10.9 22 12C22 13.1 21.1 14 20 14C18.9 14 18 13.1 18 12Z" fill="#3C8C50"/>
<path d="M12 8L8 12L12 16L16 12L12 8Z" fill="#3C8C50" opacity="0.8"/>
<path d="M8 8L4 12L8 16" stroke="#3C8C50" stroke-width="1.5" stroke-linecap="round" stroke-linejoin="round"/>
<path d="M16 8L20 12L16 16" stroke="#3C8C50" stroke-width="1.5" stroke-linecap="round" stroke-linejoin="round"/>
</svg>

