<svg width="20" height="20" viewBox="0 0 20 20" fill="none" xmlns="http://www.w3.org/2000/svg">
<g clip-path="url(#clip0_125_2271)">
<mask id="mask0_125_2271" style="mask-type:luminance" maskUnits="userSpaceOnUse" x="0" y="0" width="20" height="20">
<path d="M20 0H0V20H20V0Z" fill="white"/>
</mask>
<g mask="url(#mask0_125_2271)">
<path d="M17.4999 5.60876C17.4833 5.60876 17.4583 5.60876 17.4333 5.60876C13.0249 5.16709 8.62492 5.00043 4.2666 5.44209L2.5666 5.60876C2.2166 5.64209 1.90827 5.39209 1.87493 5.04209C1.8416 4.69209 2.0916 4.39209 2.43327 4.35876L4.13327 4.19209C8.56658 3.74209 13.0583 3.91709 17.5583 4.35876C17.8999 4.39209 18.1499 4.70043 18.1166 5.04209C18.0916 5.36709 17.8166 5.60876 17.4999 5.60876Z" fill="#3D413D"/>
<path d="M7.08334 4.76669C7.05001 4.76669 7.01667 4.76669 6.97501 4.75835C6.64167 4.70002 6.40834 4.37502 6.46667 4.04169L6.65001 2.95002C6.78334 2.15002 6.96667 1.04169 8.90833 1.04169H11.0917C13.0417 1.04169 13.225 2.19169 13.35 2.95835L13.5333 4.04169C13.5917 4.38335 13.3583 4.70835 13.025 4.75835C12.6833 4.81669 12.3583 4.58335 12.3083 4.25002L12.125 3.16669C12.0083 2.44169 11.9833 2.30002 11.1 2.30002H8.91667C8.03334 2.30002 8.01667 2.41669 7.89167 3.15835L7.70001 4.24169C7.65001 4.55002 7.38334 4.76669 7.08334 4.76669Z" fill="black"/>
<path d="M12.6749 18.958H7.32492C4.41658 18.958 4.29992 17.3497 4.20825 16.0497L3.66658 7.65803C3.64158 7.31636 3.90825 7.01636 4.24992 6.99136C4.59992 6.9747 4.89158 7.23303 4.91658 7.5747L5.45825 15.9664C5.54992 17.233 5.58325 17.708 7.32492 17.708H12.6749C14.4249 17.708 14.4583 17.233 14.5416 15.9664L15.0833 7.5747C15.1083 7.23303 15.4083 6.9747 15.7499 6.99136C16.0916 7.01636 16.3583 7.30803 16.3333 7.65803L15.7916 16.0497C15.6999 17.3497 15.5833 18.958 12.6749 18.958Z" fill="black"/>
<path d="M11.3834 14.375H8.60842C8.26674 14.375 7.9834 14.0917 7.9834 13.75C7.9834 13.4083 8.26674 13.125 8.60842 13.125H11.3834C11.7251 13.125 12.0084 13.4083 12.0084 13.75C12.0084 14.0917 11.7251 14.375 11.3834 14.375Z" fill="black"/>
<path d="M12.0833 11.0417H7.91667C7.575 11.0417 7.29167 10.7584 7.29167 10.4167C7.29167 10.075 7.575 9.79169 7.91667 9.79169H12.0833C12.425 9.79169 12.7083 10.075 12.7083 10.4167C12.7083 10.7584 12.425 11.0417 12.0833 11.0417Z" fill="black"/>
</g>
</g>
<defs>
<clipPath id="clip0_125_2271">
<rect width="20" height="20" fill="white"/>
</clipPath>
</defs>
</svg>
