<svg width="11" height="16" viewBox="0 0 11 16" fill="none" xmlns="http://www.w3.org/2000/svg">
<path d="M5.43105 15.5H2.75109C1.59109 15.5 0.581093 14.8 0.181093 13.72C-0.228907 12.64 0.0710931 11.45 0.941093 10.68L8.93105 3.69C9.41105 3.27 9.42105 2.7 9.28105 2.31C9.13105 1.92 8.75105 1.5 8.11105 1.5H5.43105C5.02105 1.5 4.68105 1.16 4.68105 0.75C4.68105 0.34 5.02105 0 5.43105 0H8.11105C9.27105 0 10.2811 0.7 10.6811 1.78C11.0911 2.86 10.7911 4.05 9.92105 4.82L1.93109 11.81C1.45109 12.23 1.44109 12.8 1.58109 13.19C1.73109 13.58 2.11109 14 2.75109 14H5.43105C5.84105 14 6.18105 14.34 6.18105 14.75C6.18105 15.16 5.84105 15.5 5.43105 15.5Z" fill="#6DCA7A"/>
</svg>
