<svg width="20" height="20" viewBox="0 0 20 20" fill="none" xmlns="http://www.w3.org/2000/svg">
<mask id="mask0_124_2338" style="mask-type:luminance" maskUnits="userSpaceOnUse" x="0" y="0" width="20" height="20">
<path d="M20 0H0V20H20V0Z" fill="white"/>
</mask>
<g mask="url(#mask0_124_2338)">
<path d="M14.575 7.99971L4.66671 13.9747C4.08337 14.3247 3.33337 13.908 3.33337 13.2247V6.55804C3.33337 3.64971 6.47504 1.83304 9.00004 3.28304L12.825 5.48304L14.5667 6.48304C15.1417 6.82471 15.15 7.65804 14.575 7.99971Z" fill="white"/>
<path d="M15.0752 12.883L11.7002 14.833L8.3335 16.7747C7.12512 17.4663 5.75846 17.3247 4.76679 16.6247C4.28346 16.2913 4.3418 15.5497 4.85013 15.2497L15.4418 8.89967C15.9418 8.59967 16.6002 8.883 16.6918 9.458C16.9002 10.7497 16.3668 12.1413 15.0752 12.883Z" fill="white"/>
</g>
</svg>
