<svg width="20" height="15" viewBox="0 0 20 15" fill="none" xmlns="http://www.w3.org/2000/svg">
<path d="M15.6273 14.5525H12.3948H11.5243H11.3363V10.2166H12.7544C13.114 10.2166 13.3265 9.80793 13.114 9.51369L10.3555 5.69677C10.1798 5.45157 9.8161 5.45157 9.64038 5.69677L6.8819 9.51369C6.66939 9.80793 6.87781 10.2166 7.24152 10.2166H8.65958V14.5525H8.4716H7.60114H3.8537C1.70821 14.434 0 12.4275 0 10.2534C0 8.75358 0.813241 7.44585 2.0188 6.73886C1.90846 6.44054 1.85125 6.12178 1.85125 5.78668C1.85125 4.25419 3.0895 3.01594 4.62199 3.01594C4.953 3.01594 5.27176 3.07315 5.57009 3.18349C6.45689 1.30364 8.36943 0 10.5926 0C13.4696 0.00408664 15.8398 2.20678 16.1095 5.0143C18.3204 5.39436 20 7.44177 20 9.75889C20 12.2354 18.0711 14.3809 15.6273 14.5525Z" fill="white"/>
</svg>
